<svg width="17" height="18" viewBox="0 0 17 18" fill="none" xmlns="http://www.w3.org/2000/svg">
<path d="M5.77052 0.470654C3.68252 1.18585 1.90172 2.75065 0.912919 4.72345C0.567319 5.40505 0.317719 6.12985 0.168919 6.87865C-0.210281 8.74105 0.0537188 10.7235 0.912919 12.4227C1.46972 13.5315 2.27132 14.5155 3.24092 15.2835C4.15772 16.0131 5.22332 16.5507 6.35612 16.8531C7.78172 17.2371 9.30332 17.2275 10.7433 16.9011C12.0441 16.6035 13.2729 15.9795 14.2521 15.0771C15.2889 14.1219 16.0281 12.8691 16.4217 11.5203C16.8489 10.0467 16.9065 8.47705 16.6377 6.96985C13.9497 6.96985 11.2617 6.96985 8.56892 6.96985C8.56892 8.08345 8.56892 9.20185 8.56892 10.3155C10.1241 10.3155 11.6841 10.3155 13.2393 10.3155C13.0569 11.3859 12.4233 12.3603 11.5209 12.9651C10.9545 13.3443 10.3065 13.5939 9.63452 13.7091C8.95772 13.8243 8.26172 13.8387 7.58972 13.7043C6.90332 13.5699 6.25052 13.2819 5.67932 12.8787C4.76732 12.2403 4.07132 11.2995 3.71612 10.2483C3.35132 9.17785 3.34652 7.98265 3.71612 6.91225C3.97052 6.15865 4.39772 5.45785 4.95932 4.89145C5.65052 4.18105 6.54812 3.67705 7.51772 3.47065C8.34812 3.29305 9.22172 3.32665 10.0329 3.57145C10.7241 3.78265 11.3577 4.15705 11.8809 4.65625C12.4089 4.13305 12.9321 3.60505 13.4601 3.08185C13.7337 2.79865 14.0265 2.52985 14.2953 2.23705C13.4985 1.49785 12.5577 0.902654 11.5353 0.528254C9.70172 -0.158146 7.62332 -0.172546 5.77052 0.470654Z" fill="white"/>
<path d="M5.77052 0.470719C7.62332 -0.172481 9.70173 -0.15808 11.5449 0.52352C12.5673 0.89792 13.5033 1.49312 14.3049 2.23232C14.0361 2.52032 13.7481 2.79392 13.4697 3.07712C12.9417 3.60032 12.4185 4.12832 11.8905 4.65152C11.3673 4.15232 10.7337 3.77312 10.0425 3.56672C9.23133 3.32192 8.35773 3.28832 7.52733 3.46592C6.55773 3.67232 5.66013 4.18112 4.96892 4.88672C4.40733 5.45312 3.98013 6.15392 3.72573 6.90752C2.78973 6.18272 1.85372 5.45312 0.917725 4.72832C1.90172 2.75072 3.68252 1.18592 5.77052 0.470719Z" fill="#E94435"/>
<path d="M0.168919 6.87883C0.317719 6.13003 0.572119 5.40523 0.912919 4.72363C1.84892 5.44843 2.78492 6.17803 3.72092 6.90283C3.35132 7.97323 3.35612 9.16843 3.72092 10.2388C2.78492 10.9636 1.84892 11.6932 0.912919 12.418C0.0537188 10.7284 -0.210281 8.74123 0.168919 6.87883Z" fill="#F8BB15"/>
<path d="M8.57371 6.96509C11.2617 6.96509 13.9497 6.96509 16.6425 6.96509C16.9113 8.47229 16.8537 10.0419 16.4265 11.5155C16.0329 12.8643 15.2937 14.1219 14.2569 15.0723C13.3497 14.3667 12.4377 13.6611 11.5353 12.9555C12.4377 12.3555 13.0713 11.3763 13.2537 10.3059C11.6985 10.3059 10.1385 10.3059 8.5833 10.3059C8.5689 9.19709 8.57371 8.08349 8.57371 6.96509Z" fill="#547DBE"/>
<path d="M0.912933 12.4226C1.84893 11.6978 2.78493 10.9682 3.72093 10.2434C4.07613 11.2994 4.77213 12.2354 5.68413 12.8738C6.25533 13.277 6.90813 13.5602 7.59453 13.6994C8.26653 13.8338 8.96733 13.8194 9.63933 13.7042C10.3113 13.589 10.9593 13.3394 11.5257 12.9602C12.4329 13.6658 13.3449 14.3714 14.2473 15.077C13.2681 15.9842 12.0393 16.6034 10.7385 16.901C9.30333 17.2274 7.78173 17.237 6.35133 16.853C5.21853 16.5506 4.15293 16.013 3.23613 15.2834C2.27133 14.5106 1.46973 13.5266 0.912933 12.4226Z" fill="#34A751"/>
</svg>
