<svg width="698" height="504" viewBox="0 0 698 504" fill="none" xmlns="http://www.w3.org/2000/svg">
<path d="M76.4999 307.963L122.645 307.963L122.645 255.934C122.645 255.934 121.317 200.944 167.689 168.827C207.474 141.285 264.647 101.613 280.098 90.8693C282.395 89.2748 285.527 90.091 286.818 92.5586C290.348 99.3541 294.828 112.793 284.084 125.112C268.918 142.499 244.83 158.558 244.83 158.558L290.823 170.592L327.818 170.592C330.21 170.592 332.051 172.737 331.652 175.11C330.172 183.955 325.483 202.709 312.196 202.709L328.217 202.709C330.476 202.709 332.26 204.626 332.089 206.866C331.482 214.649 328.767 230.897 316.657 233.934L321.877 233.934C324.193 233.934 325.996 235.946 325.73 238.243C324.629 247.639 319.352 269.164 293.898 269.164L242.173 269.164L242.173 358.795C242.173 358.795 236.384 414.089 181.071 414.089L76.4999 414.089L76.4999 307.944L76.4999 307.963Z" fill="white" stroke="#192222" stroke-width="2" stroke-miterlimit="10"/>
<path d="M-6.56885e-06 285.678L48.8208 285.678L76.2493 285.678L76.2493 435.956L0 435.956" stroke="#192222" stroke-width="2" stroke-miterlimit="10"/>
<mask id="mask0_105_368" style="mask-type:luminance" maskUnits="userSpaceOnUse" x="72" y="90" width="260" height="325">
<path d="M72 307.963L122.396 307.963L122.396 255.934C122.396 255.934 121.068 200.944 167.44 168.827C207.225 141.285 264.398 101.613 279.849 90.8694C282.146 89.2749 285.278 90.0911 286.569 92.5587C290.099 99.3542 294.579 112.793 283.835 125.112C268.669 142.5 244.581 158.558 244.581 158.558L290.574 170.592L327.569 170.592C329.961 170.592 331.802 172.737 331.403 175.11C329.923 183.955 325.234 202.709 311.947 202.709L327.968 202.709C330.226 202.709 332.011 204.626 331.84 206.866C331.232 214.649 328.518 230.897 316.408 233.934L321.628 233.934C323.944 233.934 325.747 235.946 325.481 238.243C324.38 247.639 319.103 269.164 293.649 269.164L241.924 269.164L241.924 358.796C241.924 358.796 236.134 414.089 180.822 414.089L72 414.089L72 307.944L72 307.963Z" fill="white"/>
</mask>
<g mask="url(#mask0_105_368)">
<path d="M77.2011 415.006L324.741 415.006" stroke="#192222" stroke-width="2" stroke-miterlimit="10" stroke-linecap="round"/>
<path d="M77.2011 408.704L324.741 408.704" stroke="#192222" stroke-width="2" stroke-miterlimit="10" stroke-linecap="round"/>
<path d="M77.2011 402.402L324.741 402.402" stroke="#192222" stroke-width="2" stroke-miterlimit="10" stroke-linecap="round"/>
<path d="M77.2011 396.12L324.741 396.12" stroke="#192222" stroke-width="2" stroke-miterlimit="10" stroke-linecap="round"/>
<path d="M77.2011 389.818L324.741 389.818" stroke="#192222" stroke-width="2" stroke-miterlimit="10" stroke-linecap="round"/>
<path d="M77.2011 383.516L324.741 383.516" stroke="#192222" stroke-width="2" stroke-miterlimit="10" stroke-linecap="round"/>
<path d="M77.2011 377.214L324.741 377.214" stroke="#192222" stroke-width="2" stroke-miterlimit="10" stroke-linecap="round"/>
<path d="M77.2011 370.931L324.741 370.931" stroke="#192222" stroke-width="2" stroke-miterlimit="10" stroke-linecap="round"/>
<path d="M77.2011 364.629L324.741 364.629" stroke="#192222" stroke-width="2" stroke-miterlimit="10" stroke-linecap="round"/>
<path d="M77.2011 358.327L324.741 358.327" stroke="#192222" stroke-width="2" stroke-miterlimit="10" stroke-linecap="round"/>
<path d="M77.2011 352.025L324.741 352.025" stroke="#192222" stroke-width="2" stroke-miterlimit="10" stroke-linecap="round"/>
<path d="M77.2011 345.742L324.741 345.742" stroke="#192222" stroke-width="2" stroke-miterlimit="10" stroke-linecap="round"/>
<path d="M77.2011 339.44L324.741 339.44" stroke="#192222" stroke-width="2" stroke-miterlimit="10" stroke-linecap="round"/>
<path d="M77.2011 333.138L324.741 333.138" stroke="#192222" stroke-width="2" stroke-miterlimit="10" stroke-linecap="round"/>
<path d="M77.2011 326.836L324.741 326.836" stroke="#192222" stroke-width="2" stroke-miterlimit="10" stroke-linecap="round"/>
<path d="M77.2011 320.553L324.741 320.553" stroke="#192222" stroke-width="2" stroke-miterlimit="10" stroke-linecap="round"/>
<path d="M77.2011 314.252L324.741 314.252" stroke="#192222" stroke-width="2" stroke-miterlimit="10" stroke-linecap="round"/>
<path d="M77.2011 307.95L324.741 307.95" stroke="#192222" stroke-width="2" stroke-miterlimit="10" stroke-linecap="round"/>
<path d="M77.2011 301.648L324.741 301.648" stroke="#192222" stroke-width="2" stroke-miterlimit="10" stroke-linecap="round"/>
<path d="M77.2011 295.365L324.741 295.365" stroke="#192222" stroke-width="2" stroke-miterlimit="10" stroke-linecap="round"/>
<path d="M77.2011 289.063L324.741 289.063" stroke="#192222" stroke-width="2" stroke-miterlimit="10" stroke-linecap="round"/>
<path d="M77.2011 282.761L324.741 282.761" stroke="#192222" stroke-width="2" stroke-miterlimit="10" stroke-linecap="round"/>
<path d="M77.2011 276.459L324.741 276.459" stroke="#192222" stroke-width="2" stroke-miterlimit="10" stroke-linecap="round"/>
<path d="M77.2011 270.176L324.741 270.176" stroke="#192222" stroke-width="2" stroke-miterlimit="10" stroke-linecap="round"/>
<path d="M77.2011 263.874L324.741 263.874" stroke="#192222" stroke-width="2" stroke-miterlimit="10" stroke-linecap="round"/>
<path d="M77.2011 257.572L324.741 257.572" stroke="#192222" stroke-width="2" stroke-miterlimit="10" stroke-linecap="round"/>
<path d="M77.2011 251.27L324.741 251.27" stroke="#192222" stroke-width="2" stroke-miterlimit="10" stroke-linecap="round"/>
<path d="M77.2011 244.988L324.741 244.988" stroke="#192222" stroke-width="2" stroke-miterlimit="10" stroke-linecap="round"/>
<path d="M77.2011 238.686L324.741 238.686" stroke="#192222" stroke-width="2" stroke-miterlimit="10" stroke-linecap="round"/>
<path d="M77.2011 232.384L324.741 232.384" stroke="#192222" stroke-width="2" stroke-miterlimit="10" stroke-linecap="round"/>
<path d="M77.2011 226.082L324.741 226.082" stroke="#192222" stroke-width="2" stroke-miterlimit="10" stroke-linecap="round"/>
<path d="M77.2011 219.799L324.741 219.799" stroke="#192222" stroke-width="2" stroke-miterlimit="10" stroke-linecap="round"/>
<path d="M77.2011 213.497L324.741 213.497" stroke="#192222" stroke-width="2" stroke-miterlimit="10" stroke-linecap="round"/>
<path d="M77.2011 207.195L324.741 207.195" stroke="#192222" stroke-width="2" stroke-miterlimit="10" stroke-linecap="round"/>
<path d="M77.2011 200.893L324.741 200.893" stroke="#192222" stroke-width="2" stroke-miterlimit="10" stroke-linecap="round"/>
<path d="M77.2011 194.61L324.741 194.61" stroke="#192222" stroke-width="2" stroke-miterlimit="10" stroke-linecap="round"/>
<path d="M77.2011 188.308L324.741 188.308" stroke="#192222" stroke-width="2" stroke-miterlimit="10" stroke-linecap="round"/>
<path d="M77.2011 182.006L324.741 182.006" stroke="#192222" stroke-width="2" stroke-miterlimit="10" stroke-linecap="round"/>
<path d="M77.2011 175.705L324.741 175.705" stroke="#192222" stroke-width="2" stroke-miterlimit="10" stroke-linecap="round"/>
<path d="M77.2011 169.421L324.741 169.421" stroke="#192222" stroke-width="2" stroke-miterlimit="10" stroke-linecap="round"/>
<path d="M77.2011 163.12L324.741 163.12" stroke="#192222" stroke-width="2" stroke-miterlimit="10" stroke-linecap="round"/>
<path d="M77.2011 156.818L324.741 156.818" stroke="#192222" stroke-width="2" stroke-miterlimit="10" stroke-linecap="round"/>
<path d="M77.2011 150.516L324.741 150.516" stroke="#192222" stroke-width="2" stroke-miterlimit="10" stroke-linecap="round"/>
<path d="M77.2011 144.233L324.741 144.233" stroke="#192222" stroke-width="2" stroke-miterlimit="10" stroke-linecap="round"/>
<path d="M77.2011 137.931L324.741 137.931" stroke="#192222" stroke-width="2" stroke-miterlimit="10" stroke-linecap="round"/>
<path d="M77.2011 131.629L324.741 131.629" stroke="#192222" stroke-width="2" stroke-miterlimit="10" stroke-linecap="round"/>
<path d="M77.2011 125.327L324.741 125.327" stroke="#192222" stroke-width="2" stroke-miterlimit="10" stroke-linecap="round"/>
<path d="M77.2011 119.025L324.741 119.025" stroke="#192222" stroke-width="2" stroke-miterlimit="10" stroke-linecap="round"/>
<path d="M77.2011 112.742L324.741 112.742" stroke="#192222" stroke-width="2" stroke-miterlimit="10" stroke-linecap="round"/>
<path d="M77.2011 106.44L324.741 106.44" stroke="#192222" stroke-width="2" stroke-miterlimit="10" stroke-linecap="round"/>
</g>
<path d="M620.6 315.914L574.455 315.914L574.455 263.885C574.455 263.885 575.784 208.895 529.411 176.779C489.626 149.236 432.453 109.564 417.002 98.8208C414.705 97.2264 411.573 98.0426 410.283 100.51C406.752 107.306 402.272 120.745 413.016 133.064C428.182 150.451 452.27 166.509 452.27 166.509L406.277 178.544L369.282 178.544C366.891 178.544 365.049 180.689 365.448 183.061C366.928 191.907 371.617 210.661 384.904 210.661L368.884 210.661C366.625 210.661 364.84 212.578 365.011 214.818C365.619 222.6 368.333 238.849 380.443 241.886L375.223 241.886C372.908 241.886 371.104 243.898 371.37 246.194C372.471 255.59 377.748 277.116 403.202 277.116L454.927 277.116L454.927 366.747C454.927 366.747 460.717 422.041 516.029 422.041L620.6 422.041L620.6 315.895L620.6 315.914Z" fill="white" stroke="#192222" stroke-width="2" stroke-miterlimit="10"/>
<path d="M697.1 293.63L648.28 293.63L620.851 293.63L620.851 443.907L697.1 443.907" stroke="#192222" stroke-width="2" stroke-miterlimit="10"/>
<mask id="mask1_105_368" style="mask-type:luminance" maskUnits="userSpaceOnUse" x="365" y="98" width="261" height="325">
<path d="M625.1 315.914L574.704 315.914L574.704 263.885C574.704 263.885 576.033 208.896 529.661 176.779C489.875 149.236 432.702 109.565 417.251 98.8209C414.954 97.2265 411.822 98.0427 410.532 100.51C407.001 107.306 402.521 120.745 413.265 133.064C428.431 150.451 452.519 166.51 452.519 166.51L406.527 178.544L369.531 178.544C367.14 178.544 365.298 180.689 365.697 183.062C367.178 191.907 371.866 210.661 385.153 210.661L369.133 210.661C366.874 210.661 365.09 212.578 365.261 214.818C365.868 222.6 368.582 238.849 380.693 241.886L375.473 241.886C373.157 241.886 371.354 243.898 371.619 246.195C372.72 255.59 377.997 277.116 403.452 277.116L455.177 277.116L455.177 366.747C455.177 366.747 460.966 422.041 516.279 422.041L625.1 422.041L625.1 315.895L625.1 315.914Z" fill="white"/>
</mask>
<g mask="url(#mask1_105_368)">
<path d="M619.899 422.958L372.36 422.958" stroke="#192222" stroke-width="2" stroke-miterlimit="10" stroke-linecap="round"/>
<path d="M619.899 416.656L372.36 416.656" stroke="#192222" stroke-width="2" stroke-miterlimit="10" stroke-linecap="round"/>
<path d="M619.899 410.354L372.36 410.354" stroke="#192222" stroke-width="2" stroke-miterlimit="10" stroke-linecap="round"/>
<path d="M619.899 404.071L372.36 404.071" stroke="#192222" stroke-width="2" stroke-miterlimit="10" stroke-linecap="round"/>
<path d="M619.899 397.769L372.36 397.769" stroke="#192222" stroke-width="2" stroke-miterlimit="10" stroke-linecap="round"/>
<path d="M619.899 391.467L372.36 391.467" stroke="#192222" stroke-width="2" stroke-miterlimit="10" stroke-linecap="round"/>
<path d="M619.899 385.165L372.36 385.165" stroke="#192222" stroke-width="2" stroke-miterlimit="10" stroke-linecap="round"/>
<path d="M619.899 378.882L372.36 378.882" stroke="#192222" stroke-width="2" stroke-miterlimit="10" stroke-linecap="round"/>
<path d="M619.899 372.58L372.36 372.58" stroke="#192222" stroke-width="2" stroke-miterlimit="10" stroke-linecap="round"/>
<path d="M619.899 366.279L372.36 366.279" stroke="#192222" stroke-width="2" stroke-miterlimit="10" stroke-linecap="round"/>
<path d="M619.899 359.977L372.36 359.976" stroke="#192222" stroke-width="2" stroke-miterlimit="10" stroke-linecap="round"/>
<path d="M619.899 353.694L372.36 353.694" stroke="#192222" stroke-width="2" stroke-miterlimit="10" stroke-linecap="round"/>
<path d="M619.899 347.392L372.36 347.392" stroke="#192222" stroke-width="2" stroke-miterlimit="10" stroke-linecap="round"/>
<path d="M619.899 341.09L372.36 341.09" stroke="#192222" stroke-width="2" stroke-miterlimit="10" stroke-linecap="round"/>
<path d="M619.899 334.788L372.36 334.788" stroke="#192222" stroke-width="2" stroke-miterlimit="10" stroke-linecap="round"/>
<path d="M619.899 328.505L372.36 328.505" stroke="#192222" stroke-width="2" stroke-miterlimit="10" stroke-linecap="round"/>
<path d="M619.899 322.203L372.36 322.203" stroke="#192222" stroke-width="2" stroke-miterlimit="10" stroke-linecap="round"/>
<path d="M619.899 315.901L372.36 315.901" stroke="#192222" stroke-width="2" stroke-miterlimit="10" stroke-linecap="round"/>
<path d="M619.899 309.599L372.36 309.599" stroke="#192222" stroke-width="2" stroke-miterlimit="10" stroke-linecap="round"/>
<path d="M619.899 303.316L372.36 303.316" stroke="#192222" stroke-width="2" stroke-miterlimit="10" stroke-linecap="round"/>
<path d="M619.899 297.014L372.36 297.014" stroke="#192222" stroke-width="2" stroke-miterlimit="10" stroke-linecap="round"/>
<path d="M619.899 290.712L372.36 290.712" stroke="#192222" stroke-width="2" stroke-miterlimit="10" stroke-linecap="round"/>
<path d="M619.899 284.411L372.36 284.411" stroke="#192222" stroke-width="2" stroke-miterlimit="10" stroke-linecap="round"/>
<path d="M619.899 278.128L372.36 278.128" stroke="#192222" stroke-width="2" stroke-miterlimit="10" stroke-linecap="round"/>
<path d="M619.899 271.826L372.36 271.826" stroke="#192222" stroke-width="2" stroke-miterlimit="10" stroke-linecap="round"/>
<path d="M619.899 265.524L372.36 265.524" stroke="#192222" stroke-width="2" stroke-miterlimit="10" stroke-linecap="round"/>
<path d="M619.899 259.222L372.36 259.222" stroke="#192222" stroke-width="2" stroke-miterlimit="10" stroke-linecap="round"/>
<path d="M619.899 252.939L372.36 252.939" stroke="#192222" stroke-width="2" stroke-miterlimit="10" stroke-linecap="round"/>
<path d="M619.899 246.637L372.36 246.637" stroke="#192222" stroke-width="2" stroke-miterlimit="10" stroke-linecap="round"/>
<path d="M619.899 240.335L372.36 240.335" stroke="#192222" stroke-width="2" stroke-miterlimit="10" stroke-linecap="round"/>
<path d="M619.899 234.033L372.36 234.033" stroke="#192222" stroke-width="2" stroke-miterlimit="10" stroke-linecap="round"/>
<path d="M619.899 227.75L372.36 227.75" stroke="#192222" stroke-width="2" stroke-miterlimit="10" stroke-linecap="round"/>
<path d="M619.899 221.448L372.36 221.448" stroke="#192222" stroke-width="2" stroke-miterlimit="10" stroke-linecap="round"/>
<path d="M619.899 215.147L372.36 215.147" stroke="#192222" stroke-width="2" stroke-miterlimit="10" stroke-linecap="round"/>
<path d="M619.899 208.845L372.36 208.845" stroke="#192222" stroke-width="2" stroke-miterlimit="10" stroke-linecap="round"/>
<path d="M619.899 202.562L372.36 202.562" stroke="#192222" stroke-width="2" stroke-miterlimit="10" stroke-linecap="round"/>
<path d="M619.899 196.26L372.36 196.26" stroke="#192222" stroke-width="2" stroke-miterlimit="10" stroke-linecap="round"/>
<path d="M619.899 189.958L372.36 189.958" stroke="#192222" stroke-width="2" stroke-miterlimit="10" stroke-linecap="round"/>
<path d="M619.899 183.656L372.36 183.656" stroke="#192222" stroke-width="2" stroke-miterlimit="10" stroke-linecap="round"/>
<path d="M619.899 177.373L372.36 177.373" stroke="#192222" stroke-width="2" stroke-miterlimit="10" stroke-linecap="round"/>
<path d="M619.899 171.071L372.36 171.071" stroke="#192222" stroke-width="2" stroke-miterlimit="10" stroke-linecap="round"/>
<path d="M619.899 164.769L372.36 164.769" stroke="#192222" stroke-width="2" stroke-miterlimit="10" stroke-linecap="round"/>
<path d="M619.899 158.467L372.36 158.467" stroke="#192222" stroke-width="2" stroke-miterlimit="10" stroke-linecap="round"/>
<path d="M619.899 152.184L372.36 152.184" stroke="#192222" stroke-width="2" stroke-miterlimit="10" stroke-linecap="round"/>
<path d="M619.899 145.883L372.36 145.883" stroke="#192222" stroke-width="2" stroke-miterlimit="10" stroke-linecap="round"/>
<path d="M619.899 139.58L372.36 139.58" stroke="#192222" stroke-width="2" stroke-miterlimit="10" stroke-linecap="round"/>
<path d="M619.899 133.279L372.36 133.279" stroke="#192222" stroke-width="2" stroke-miterlimit="10" stroke-linecap="round"/>
<path d="M619.899 126.977L372.36 126.977" stroke="#192222" stroke-width="2" stroke-miterlimit="10" stroke-linecap="round"/>
<path d="M619.899 120.694L372.36 120.694" stroke="#192222" stroke-width="2" stroke-miterlimit="10" stroke-linecap="round"/>
<path d="M619.899 114.392L372.36 114.392" stroke="#192222" stroke-width="2" stroke-miterlimit="10" stroke-linecap="round"/>
</g>
<path d="M235.385 484.166L149.167 88.7872C146.971 78.7155 153.355 68.7703 163.426 66.574L445.026 5.16689C455.098 2.9706 465.043 9.35489 467.24 19.4266L553.458 414.805C555.654 424.877 549.27 434.822 539.198 437.018L257.598 498.425C247.527 500.622 237.581 494.237 235.385 484.166Z" fill="white" stroke="#192222" stroke-width="2"/>
<rect x="188.44" y="182.084" width="91.3462" height="95" rx="45.6731" transform="rotate(-105 188.44 182.084)" fill="#FFEB36"/>
<path d="M225.186 107.464C224.469 104.788 223.237 103.023 221.31 101.903C219.333 100.76 217.314 100.583 214.566 101.32L199.468 105.365C196.023 106.288 193.944 107.739 192.514 110.23C191.082 112.714 190.863 115.246 191.787 118.697L193.461 124.943L219.058 118.084C221.806 117.348 223.468 116.192 224.607 114.207C225.717 112.28 225.902 110.135 225.183 107.453L225.186 107.464Z" fill="#192222"/>
<path d="M216.258 151.884C217.398 149.894 217.569 147.859 216.827 145.088L211.289 124.421L202.91 126.667C200.158 127.404 198.494 128.566 197.356 130.562C196.217 132.552 196.045 134.587 196.788 137.358L200.064 149.586C200.807 152.357 201.967 154.035 203.955 155.187C205.885 156.311 208.03 156.502 210.712 155.784C213.393 155.065 215.15 153.828 216.265 151.889L216.258 151.884Z" fill="#192222"/>
<path d="M246.037 146.306C249.408 145.402 251.626 143.841 253.022 141.399C254.417 138.957 254.645 136.23 253.735 132.834L248.67 113.932L223.109 120.781C220.426 121.5 218.659 122.744 217.541 124.691C216.429 126.637 216.247 128.805 216.973 131.518L220.347 144.109C221.073 146.817 222.314 148.603 224.252 149.738C226.188 150.867 228.34 151.06 231.029 150.34L246.04 146.318L246.037 146.306Z" fill="#192222"/>
<path d="M239.379 112.633C242.117 111.899 243.774 110.748 244.91 108.774C246.047 106.805 246.222 104.793 245.488 102.056L243.233 93.6386L234.812 95.8948C232.22 96.5895 230.359 97.8889 229.281 99.7542C228.204 101.619 228.009 103.88 228.703 106.472L228.725 106.554C229.42 109.145 230.719 111.006 232.585 112.082C234.45 113.159 236.712 113.354 239.304 112.659L239.386 112.637L239.379 112.633Z" fill="#192222"/>
<mask id="mask2_105_368" style="mask-type:luminance" maskUnits="userSpaceOnUse" x="152" y="172" width="96" height="180">
<path d="M152.997 351.146C211.252 335.809 197.11 254.909 197.11 254.909C197.11 254.909 236.497 221.653 244.754 203.013C253.011 184.373 237.674 172.585 237.674 172.585L156.774 229.663L152.997 351.127L152.997 351.146Z" fill="white"/>
</mask>
<g mask="url(#mask2_105_368)">
<path d="M152.997 121.531L152.997 373.778L269.507 373.778L269.507 121.531L152.997 121.531Z" fill="white"/>
<path d="M77.4501 352.025L324.99 352.025" stroke="#192222" stroke-width="2" stroke-miterlimit="10" stroke-linecap="round"/>
<path d="M77.4501 345.742L324.99 345.742" stroke="#192222" stroke-width="2" stroke-miterlimit="10" stroke-linecap="round"/>
<path d="M77.4501 339.44L324.99 339.44" stroke="#192222" stroke-width="2" stroke-miterlimit="10" stroke-linecap="round"/>
<path d="M77.4501 333.138L324.99 333.138" stroke="#192222" stroke-width="2" stroke-miterlimit="10" stroke-linecap="round"/>
<path d="M77.4501 326.836L324.99 326.836" stroke="#192222" stroke-width="2" stroke-miterlimit="10" stroke-linecap="round"/>
<path d="M77.4501 320.553L324.99 320.553" stroke="#192222" stroke-width="2" stroke-miterlimit="10" stroke-linecap="round"/>
<path d="M77.4501 314.251L324.99 314.251" stroke="#192222" stroke-width="2" stroke-miterlimit="10" stroke-linecap="round"/>
<path d="M77.4501 307.949L324.99 307.949" stroke="#192222" stroke-width="2" stroke-miterlimit="10" stroke-linecap="round"/>
<path d="M77.4501 301.648L324.99 301.648" stroke="#192222" stroke-width="2" stroke-miterlimit="10" stroke-linecap="round"/>
<path d="M77.4501 295.365L324.99 295.365" stroke="#192222" stroke-width="2" stroke-miterlimit="10" stroke-linecap="round"/>
<path d="M77.4501 289.063L324.99 289.063" stroke="#192222" stroke-width="2" stroke-miterlimit="10" stroke-linecap="round"/>
<path d="M77.4501 282.761L324.99 282.761" stroke="#192222" stroke-width="2" stroke-miterlimit="10" stroke-linecap="round"/>
<path d="M77.4501 276.459L324.99 276.459" stroke="#192222" stroke-width="2" stroke-miterlimit="10" stroke-linecap="round"/>
<path d="M77.4501 270.176L324.99 270.176" stroke="#192222" stroke-width="2" stroke-miterlimit="10" stroke-linecap="round"/>
<path d="M77.4501 263.874L324.99 263.874" stroke="#192222" stroke-width="2" stroke-miterlimit="10" stroke-linecap="round"/>
<path d="M77.4501 257.572L324.99 257.572" stroke="#192222" stroke-width="2" stroke-miterlimit="10" stroke-linecap="round"/>
<path d="M77.4501 251.27L324.99 251.27" stroke="#192222" stroke-width="2" stroke-miterlimit="10" stroke-linecap="round"/>
<path d="M77.4501 244.987L324.99 244.987" stroke="#192222" stroke-width="2" stroke-miterlimit="10" stroke-linecap="round"/>
<path d="M77.4501 238.685L324.99 238.685" stroke="#192222" stroke-width="2" stroke-miterlimit="10" stroke-linecap="round"/>
<path d="M77.4501 232.384L324.99 232.384" stroke="#192222" stroke-width="2" stroke-miterlimit="10" stroke-linecap="round"/>
<path d="M77.4501 226.082L324.99 226.082" stroke="#192222" stroke-width="2" stroke-miterlimit="10" stroke-linecap="round"/>
<path d="M77.4501 219.799L324.99 219.799" stroke="#192222" stroke-width="2" stroke-miterlimit="10" stroke-linecap="round"/>
<path d="M77.4501 213.497L324.99 213.497" stroke="#192222" stroke-width="2" stroke-miterlimit="10" stroke-linecap="round"/>
<path d="M77.4501 207.195L324.99 207.195" stroke="#192222" stroke-width="2" stroke-miterlimit="10" stroke-linecap="round"/>
<path d="M77.4501 200.893L324.99 200.893" stroke="#192222" stroke-width="2" stroke-miterlimit="10" stroke-linecap="round"/>
<path d="M77.4501 194.61L324.99 194.61" stroke="#192222" stroke-width="2" stroke-miterlimit="10" stroke-linecap="round"/>
<path d="M77.4501 188.308L324.99 188.308" stroke="#192222" stroke-width="2" stroke-miterlimit="10" stroke-linecap="round"/>
<path d="M77.4501 182.006L324.99 182.006" stroke="#192222" stroke-width="2" stroke-miterlimit="10" stroke-linecap="round"/>
<path d="M77.4501 175.704L324.99 175.704" stroke="#192222" stroke-width="2" stroke-miterlimit="10" stroke-linecap="round"/>
</g>
<mask id="mask3_105_368" style="mask-type:luminance" maskUnits="userSpaceOnUse" x="452" y="186" width="96" height="180">
<path d="M547.082 365.512C488.827 350.175 502.969 269.275 502.969 269.275C502.969 269.275 463.582 236.019 455.325 217.379C447.068 198.739 462.405 186.952 462.405 186.952L543.305 244.029L547.082 365.493L547.082 365.512Z" fill="white"/>
</mask>
<g mask="url(#mask3_105_368)">
<path d="M547.082 135.897L547.082 388.144L430.572 388.144L430.572 135.897L547.082 135.897Z" fill="white"/>
<path d="M622.629 366.391L375.089 366.391" stroke="#192222" stroke-width="2" stroke-miterlimit="10" stroke-linecap="round"/>
<path d="M622.629 360.108L375.089 360.108" stroke="#192222" stroke-width="2" stroke-miterlimit="10" stroke-linecap="round"/>
<path d="M622.629 353.806L375.089 353.806" stroke="#192222" stroke-width="2" stroke-miterlimit="10" stroke-linecap="round"/>
<path d="M622.629 347.504L375.089 347.504" stroke="#192222" stroke-width="2" stroke-miterlimit="10" stroke-linecap="round"/>
<path d="M622.629 341.203L375.089 341.203" stroke="#192222" stroke-width="2" stroke-miterlimit="10" stroke-linecap="round"/>
<path d="M622.629 334.92L375.089 334.92" stroke="#192222" stroke-width="2" stroke-miterlimit="10" stroke-linecap="round"/>
<path d="M622.629 328.618L375.089 328.618" stroke="#192222" stroke-width="2" stroke-miterlimit="10" stroke-linecap="round"/>
<path d="M622.629 322.316L375.089 322.316" stroke="#192222" stroke-width="2" stroke-miterlimit="10" stroke-linecap="round"/>
<path d="M622.629 316.014L375.089 316.014" stroke="#192222" stroke-width="2" stroke-miterlimit="10" stroke-linecap="round"/>
<path d="M622.629 309.731L375.089 309.731" stroke="#192222" stroke-width="2" stroke-miterlimit="10" stroke-linecap="round"/>
<path d="M622.629 303.429L375.089 303.429" stroke="#192222" stroke-width="2" stroke-miterlimit="10" stroke-linecap="round"/>
<path d="M622.629 297.127L375.089 297.127" stroke="#192222" stroke-width="2" stroke-miterlimit="10" stroke-linecap="round"/>
<path d="M622.629 290.825L375.089 290.825" stroke="#192222" stroke-width="2" stroke-miterlimit="10" stroke-linecap="round"/>
<path d="M622.629 284.542L375.089 284.542" stroke="#192222" stroke-width="2" stroke-miterlimit="10" stroke-linecap="round"/>
<path d="M622.629 278.24L375.089 278.24" stroke="#192222" stroke-width="2" stroke-miterlimit="10" stroke-linecap="round"/>
<path d="M622.629 271.939L375.089 271.939" stroke="#192222" stroke-width="2" stroke-miterlimit="10" stroke-linecap="round"/>
<path d="M622.629 265.637L375.089 265.637" stroke="#192222" stroke-width="2" stroke-miterlimit="10" stroke-linecap="round"/>
<path d="M622.629 259.354L375.089 259.354" stroke="#192222" stroke-width="2" stroke-miterlimit="10" stroke-linecap="round"/>
<path d="M622.629 253.052L375.089 253.052" stroke="#192222" stroke-width="2" stroke-miterlimit="10" stroke-linecap="round"/>
<path d="M622.629 246.75L375.089 246.75" stroke="#192222" stroke-width="2" stroke-miterlimit="10" stroke-linecap="round"/>
<path d="M622.629 240.448L375.089 240.448" stroke="#192222" stroke-width="2" stroke-miterlimit="10" stroke-linecap="round"/>
<path d="M622.629 234.165L375.089 234.165" stroke="#192222" stroke-width="2" stroke-miterlimit="10" stroke-linecap="round"/>
<path d="M622.629 227.863L375.089 227.863" stroke="#192222" stroke-width="2" stroke-miterlimit="10" stroke-linecap="round"/>
<path d="M622.629 221.561L375.089 221.561" stroke="#192222" stroke-width="2" stroke-miterlimit="10" stroke-linecap="round"/>
<path d="M622.629 215.259L375.089 215.259" stroke="#192222" stroke-width="2" stroke-miterlimit="10" stroke-linecap="round"/>
<path d="M622.629 208.976L375.089 208.976" stroke="#192222" stroke-width="2" stroke-miterlimit="10" stroke-linecap="round"/>
<path d="M622.629 202.674L375.089 202.674" stroke="#192222" stroke-width="2" stroke-miterlimit="10" stroke-linecap="round"/>
<path d="M622.629 196.372L375.089 196.372" stroke="#192222" stroke-width="2" stroke-miterlimit="10" stroke-linecap="round"/>
<path d="M622.629 190.071L375.089 190.071" stroke="#192222" stroke-width="2" stroke-miterlimit="10" stroke-linecap="round"/>
</g>
<path d="M543.323 244.048L462.423 186.97C462.423 186.97 447.086 198.758 455.343 217.398C463.6 236.038 502.987 269.294 502.987 269.294C502.987 269.294 488.827 350.194 547.1 365.531" stroke="#192222" stroke-width="2" stroke-miterlimit="10"/>
<path d="M156.756 229.682L237.656 172.604C237.656 172.604 252.993 184.392 244.736 203.032C236.479 221.672 197.092 254.928 197.092 254.928C197.092 254.928 211.252 335.828 152.979 351.165" stroke="#192222" stroke-width="2" stroke-miterlimit="10"/>
<circle cx="351.5" cy="257.5" r="72" stroke="black"/>
<circle cx="351.5" cy="257.5" r="99" stroke="black" stroke-dasharray="4 4"/>
<path d="M365.965 232.157C363.678 223.621 354.905 218.556 346.369 220.843L338.642 222.913C330.106 225.2 325.041 233.974 327.328 242.509C329.615 251.045 338.389 256.11 346.924 253.823L354.651 251.752C363.187 249.465 371.96 254.531 374.247 263.066C376.534 271.602 371.469 280.375 362.934 282.662L355.206 284.733C346.671 287.02 337.897 281.954 335.61 273.419M340.435 214.151L361.141 291.425" stroke="#111111" stroke-width="2" stroke-linecap="round"/>
</svg>
