<svg width="728" height="250" viewBox="0 0 728 250" fill="none" xmlns="http://www.w3.org/2000/svg">
<g clip-path="url(#clip0_1075_139)">
<path d="M186.389 156.491C198.988 156.491 207.833 153.124 214.77 146.178C221.707 139.241 225.074 130.871 225.074 117.797V49.5887C225.074 33.253 220.863 22.8081 212.194 14.1392C203.525 5.47019 193.08 1.26758 176.744 1.26758H147.695V117.797C147.695 130.871 151.063 139.241 158 146.178C164.937 153.115 173.781 156.491 186.38 156.491H186.389Z" fill="#192222"/>
<path d="M39.5639 79.1278H133.015V40.4428C133.015 27.3691 129.647 18.999 122.71 12.0621C115.773 5.12517 107.403 1.75781 94.3296 1.75781H39.5639C26.4901 1.75781 18.1201 5.12517 11.1832 12.0621C4.24624 18.999 0.878906 27.8438 0.878906 40.4428C0.878906 53.0418 4.24624 61.8866 11.1832 68.8236C18.1201 75.7605 26.4901 79.1278 39.5639 79.1278Z" fill="#192222"/>
<path d="M94.8222 93.1953H38.685C26.086 93.1953 17.2412 96.5627 10.3043 103.5C3.36733 110.437 0 119.281 0 131.88V199.403C0 215.15 4.21141 226.201 12.8804 234.87C21.5493 243.539 32.6009 247.751 48.3475 247.751H133.507V131.88C133.507 119.281 130.14 110.445 123.203 103.5C116.266 96.5627 107.421 93.1953 94.8222 93.1953Z" fill="#192222"/>
<path d="M214.774 180.466C208.312 174.004 198.992 170.162 186.393 170.162H186.033C173.434 170.162 164.114 174.004 157.652 180.466C151.19 186.929 147.348 196.248 147.348 208.847V209.208C147.348 222.281 150.715 230.651 157.652 237.588C164.589 244.525 172.959 247.893 186.033 247.893H225.078V208.847C225.078 196.248 221.236 186.929 214.774 180.466Z" fill="#192222"/>
<path d="M599.335 29.5762C575.359 29.5762 559.27 45.6656 559.27 71.4087C559.27 97.1518 575.359 113.892 599.335 113.892C623.311 113.892 639.567 97.1606 639.567 71.4087C639.567 45.6568 623.153 29.5762 599.335 29.5762ZM600.056 99.7367H598.605C584.283 99.7367 577.786 86.2233 577.786 71.4175C577.786 56.6117 584.441 43.7402 598.605 43.7402H600.056C614.378 43.7402 621.034 56.2952 621.034 71.4175C621.034 86.5399 614.536 99.7367 600.056 99.7367Z" fill="#192222"/>
<path d="M650.68 31.4313V112.037H668.739V63.5486C668.739 55.6358 670.857 52.0662 674.207 49.0945C677.715 45.9733 682.568 44.3292 687.764 44.3292H688.248C698.078 44.3292 705.34 48.6813 705.34 59.9703V112.037H723.39V58.6427C723.39 47.9428 720.269 41.0674 714.897 36.3285C709.973 31.9852 703.151 29.5938 695.106 29.5938C681.566 29.5938 672.792 34.9393 668.334 43.8457L666.092 43.2039C667.701 39.01 668.747 37.2428 668.747 33.2073V31.4313H650.68Z" fill="#192222"/>
<path d="M441.824 0V112.037H459.883V63.5489C459.883 55.6361 462.002 52.0665 465.352 49.0948C468.86 45.9736 473.713 44.3295 478.909 44.3295H479.393C489.222 44.3295 496.484 48.6816 496.484 59.9706V112.037H514.535V58.643C514.535 47.9431 511.413 41.0677 506.041 36.3288C501.118 31.9855 494.295 29.594 486.25 29.594C472.711 29.594 463.936 34.9396 459.479 43.8459L457.237 43.2041C458.846 39.0103 459.892 37.2431 459.892 33.2076V0H441.833H441.824Z" fill="#192222"/>
<path d="M315.679 176.729C313.279 174.549 311.916 171.946 311.916 168.113C311.916 159.189 320.005 153.175 333.448 153.175C352.184 153.175 358.092 164.983 358.092 174.206H377.444C377.444 152.419 359.798 138.105 334.16 138.105C308.523 138.105 292.978 151.39 292.978 170.249C292.978 176.465 295.001 183.068 300.065 188.106C313.912 201.865 344.939 199.632 355.156 208.204C357.855 210.473 359.657 213.717 359.657 218.535C359.657 228.532 350.9 234.66 335.725 234.66C311.09 234.66 309.956 218.131 309.956 209.708H290.613C290.613 234.581 305.252 249.492 336.226 249.492C362.945 249.492 378.842 236.629 378.842 217.577C378.842 208.178 375.712 200.555 368.273 194.779C353.468 183.279 325.412 185.618 315.662 176.738L315.679 176.729Z" fill="#192222"/>
<path d="M430.476 232.876C428.55 233.316 425.622 233.658 422.897 233.509C416.285 233.14 414.518 229.078 414.518 222.308V180.554H429.35V166.848H414.518V143.953H396.459V166.848H384.695V180.554H396.459V221.991C396.459 238.591 402.912 248.913 419.512 248.913C423.539 248.913 428.462 248.2 430.476 247.462V232.885V232.876Z" fill="#192222"/>
<path d="M430.862 97.4599C428.937 97.8995 426.009 98.2424 423.283 98.0929C416.672 97.7237 414.905 93.6618 414.905 86.8919V45.1384H429.737V31.4316H414.905V8.53711H396.846V31.4316H385.082V45.1384H396.846V86.5753C396.846 103.175 403.299 113.497 419.899 113.497C423.925 113.497 428.849 112.784 430.862 112.046V97.4687V97.4599Z" fill="#192222"/>
<path d="M494.15 166.848V214.993C494.15 222.22 492.787 226.238 488.822 229.939C485.534 233.008 480.522 234.555 475.616 234.555C470.71 234.555 466.253 233.192 463.518 230.476C460.626 227.61 459.5 224.409 459.5 217.815V166.848H441.441V219.169C441.441 230.449 444.044 236.824 448.598 241.554C453.319 246.451 460.582 249.299 468.495 249.299C482.034 249.299 490.589 243.479 494.668 235.206L496.928 235.848C495.319 239.558 494.15 241.642 494.15 245.677V247.453H512.217V166.848H494.158H494.15Z" fill="#192222"/>
<path d="M559.122 249.299C572.82 249.299 581.242 242.248 584.953 233.764L587.133 234.406C585.841 238.274 584.821 242.45 584.821 245.677V247.453H602.88V135.416H584.821V167.498C584.821 171.85 585.682 175.077 587.133 179.913L584.953 180.554C581.726 172.492 573.145 164.984 559.122 164.984C539.709 164.984 523.32 180.062 523.32 207.309C523.32 234.555 539.111 249.299 559.122 249.299ZM562.814 235.091C548.633 235.091 541.836 223.802 541.836 207.203C541.836 190.604 548.633 179.156 562.814 179.156H563.94C578.121 179.156 585.366 190.604 585.366 207.203C585.366 223.802 578.112 235.091 563.94 235.091H562.814Z" fill="#192222"/>
<path d="M627.813 155.559C633.783 155.559 638.452 150.723 638.452 144.754C638.452 138.784 633.774 134.115 627.813 134.115C621.852 134.115 616.691 138.793 616.691 144.754C616.691 150.715 621.694 155.559 627.813 155.559Z" fill="#192222"/>
<path d="M636.684 166.848H618.625V247.453H636.684V166.848Z" fill="#192222"/>
<path d="M687.862 164.982C663.886 164.982 647.797 181.072 647.797 206.824C647.797 232.576 663.886 249.307 687.862 249.307C711.838 249.307 728.086 232.576 728.086 206.824C728.086 181.072 711.671 164.982 687.862 164.982ZM688.592 235.143H687.132C672.661 235.143 666.322 221.63 666.322 206.824C666.322 192.018 672.828 179.146 687.132 179.146H688.592C703.064 179.146 709.561 191.701 709.561 206.824C709.561 221.946 703.222 235.143 688.592 235.143Z" fill="#192222"/>
<path d="M370.337 112.037H390.893L349.694 4.83594H326.667L288.211 112.037H307.281L317.102 83.6655H359.84L370.337 112.037ZM321.964 69.6421L333.253 37.0236C335.029 31.8979 336.251 28.5041 336.866 22.5959H339.284C339.768 28.3371 340.647 31.8891 342.581 37.0236L354.644 69.6421H321.955H321.964Z" fill="#192222"/>
<path d="M548.157 0H530.098V112.037H548.157V0Z" fill="#192222"/>
</g>
<defs>
<clipPath id="clip0_1075_139">
<rect width="727.982" height="249.694" fill="white"/>
</clipPath>
</defs>
</svg>
